<?xml version="1.0" encoding="utf-8" standalone="no"?>
<!DOCTYPE svg PUBLIC "-//W3C//DTD SVG 1.1//EN"
  "http://www.w3.org/Graphics/SVG/1.1/DTD/svg11.dtd">
<svg xmlns:xlink="http://www.w3.org/1999/xlink" width="399.06pt" height="163.656pt" viewBox="0 0 399.06 163.656" xmlns="http://www.w3.org/2000/svg" version="1.1">
 <metadata>
  <rdf:RDF xmlns:dc="http://purl.org/dc/elements/1.1/" xmlns:cc="http://creativecommons.org/ns#" xmlns:rdf="http://www.w3.org/1999/02/22-rdf-syntax-ns#">
   <cc:Work>
    <dc:type rdf:resource="http://purl.org/dc/dcmitype/StillImage"/>
    <dc:date>2026-06-12T09:17:41.447691</dc:date>
    <dc:format>image/svg+xml</dc:format>
    <dc:creator>
     <cc:Agent>
      <dc:title>Matplotlib v3.10.9, https://matplotlib.org/</dc:title>
     </cc:Agent>
    </dc:creator>
   </cc:Work>
  </rdf:RDF>
 </metadata>
 <defs>
  <style type="text/css">*{stroke-linejoin: round; stroke-linecap: butt}</style>
 </defs>
 <g id="figure_1">
  <g id="patch_1">
   <path d="M 0 163.656 
L 399.06 163.656 
L 399.06 0 
L 0 0 
z
" style="fill: #ffffff"/>
  </g>
  <g id="axes_1">
   <g id="patch_2">
    <path d="M 4.21326 51.61819 
L 71.56386 51.61819 
Q 74.7333 51.61819 74.7333 48.53129 
L 74.7333 18.65911 
Q 74.7333 15.57221 71.56386 15.57221 
L 4.21326 15.57221 
Q 1.04382 15.57221 1.04382 18.65911 
L 1.04382 48.53129 
Q 1.04382 51.61819 4.21326 51.61819 
z
" clip-path="url(#pcd72a5cdbf)" style="fill: #f2f2f2; stroke: #3d3d3d; stroke-width: 0.7; stroke-linejoin: miter"/>
   </g>
   <g id="patch_3">
    <path d="M 81.46836 51.61819 
L 148.81896 51.61819 
Q 151.9884 51.61819 151.9884 48.53129 
L 151.9884 18.65911 
Q 151.9884 15.57221 148.81896 15.57221 
L 81.46836 15.57221 
Q 78.29892 15.57221 78.29892 18.65911 
L 78.29892 48.53129 
Q 78.29892 51.61819 81.46836 51.61819 
z
" clip-path="url(#pcd72a5cdbf)" style="fill: #f2f2f2; stroke: #3d3d3d; stroke-width: 0.7; stroke-linejoin: miter"/>
   </g>
   <g id="patch_4">
    <path d="M 161.49672 51.61819 
L 228.84732 51.61819 
Q 232.01676 51.61819 232.01676 48.53129 
L 232.01676 18.65911 
Q 232.01676 15.57221 228.84732 15.57221 
L 161.49672 15.57221 
Q 158.32728 15.57221 158.32728 18.65911 
L 158.32728 48.53129 
Q 158.32728 51.61819 161.49672 51.61819 
z
" clip-path="url(#pcd72a5cdbf)" style="fill: #ffffff; stroke: #3d3d3d; stroke-width: 0.7; stroke-linejoin: miter"/>
   </g>
   <g id="patch_5">
    <path d="M 240.73272 51.61819 
L 308.08332 51.61819 
Q 311.25276 51.61819 311.25276 48.53129 
L 311.25276 18.65911 
Q 311.25276 15.57221 308.08332 15.57221 
L 240.73272 15.57221 
Q 237.56328 15.57221 237.56328 18.65911 
L 237.56328 48.53129 
Q 237.56328 51.61819 240.73272 51.61819 
z
" clip-path="url(#pcd72a5cdbf)" style="fill: #ffffff; stroke: #3d3d3d; stroke-width: 0.7; stroke-linejoin: miter"/>
   </g>
   <g id="patch_6">
    <path d="M 322.3458 51.61819 
L 389.6964 51.61819 
Q 392.86584 51.61819 392.86584 48.53129 
L 392.86584 18.65911 
Q 392.86584 15.57221 389.6964 15.57221 
L 322.3458 15.57221 
Q 319.17636 15.57221 319.17636 18.65911 
L 319.17636 48.53129 
Q 319.17636 51.61819 322.3458 51.61819 
z
" clip-path="url(#pcd72a5cdbf)" style="fill: #ffffff; stroke: #3d3d3d; stroke-width: 0.7; stroke-linejoin: miter"/>
   </g>
   <g id="patch_7">
    <path d="M 5.79798 112.71307 
L 85.82634 112.71307 
Q 88.99578 112.71307 88.99578 109.62617 
L 88.99578 79.75399 
Q 88.99578 76.66709 85.82634 76.66709 
L 5.79798 76.66709 
Q 2.62854 76.66709 2.62854 79.75399 
L 2.62854 109.62617 
Q 2.62854 112.71307 5.79798 112.71307 
z
" clip-path="url(#pcd72a5cdbf)" style="fill: #ffffff; stroke: #3d3d3d; stroke-width: 0.7; stroke-linejoin: miter"/>
   </g>
   <g id="patch_8">
    <path d="M 98.10792 112.71307 
L 178.13628 112.71307 
Q 181.30572 112.71307 181.30572 109.62617 
L 181.30572 79.75399 
Q 181.30572 76.66709 178.13628 76.66709 
L 98.10792 76.66709 
Q 94.93848 76.66709 94.93848 79.75399 
L 94.93848 109.62617 
Q 94.93848 112.71307 98.10792 112.71307 
z
" clip-path="url(#pcd72a5cdbf)" style="fill: #ffffff; stroke: #3d3d3d; stroke-width: 0.7; stroke-linejoin: miter"/>
   </g>
   <g id="patch_9">
    <path d="M 199.13382 112.71307 
L 279.16218 112.71307 
Q 282.33162 112.71307 282.33162 109.62617 
L 282.33162 79.75399 
Q 282.33162 76.66709 279.16218 76.66709 
L 199.13382 76.66709 
Q 195.96438 76.66709 195.96438 79.75399 
L 195.96438 109.62617 
Q 195.96438 112.71307 199.13382 112.71307 
z
" clip-path="url(#pcd72a5cdbf)" style="fill: #ffffff; stroke: #cc3311; stroke-linejoin: miter"/>
   </g>
   <g id="patch_10">
    <path d="M 308.08332 112.71307 
L 388.11168 112.71307 
Q 391.28112 112.71307 391.28112 109.62617 
L 391.28112 79.75399 
Q 391.28112 76.66709 388.11168 76.66709 
L 308.08332 76.66709 
Q 304.91388 76.66709 304.91388 79.75399 
L 304.91388 109.62617 
Q 304.91388 112.71307 308.08332 112.71307 
z
" clip-path="url(#pcd72a5cdbf)" style="fill: #ffffff; stroke: #3d3d3d; stroke-width: 0.7; stroke-linejoin: miter"/>
   </g>
   <g id="line2d_1">
    <path d="M 356.0211 52.004052 
L 356.0211 61.731 
" clip-path="url(#pcd72a5cdbf)" style="fill: none; stroke: #3d3d3d; stroke-width: 0.8; stroke-linecap: square"/>
   </g>
   <g id="line2d_2">
    <path d="M 356.0211 61.731 
L 45.81216 61.731 
" clip-path="url(#pcd72a5cdbf)" style="fill: none; stroke: #3d3d3d; stroke-width: 0.8; stroke-linecap: square"/>
   </g>
   <g id="line2d_3">
    <path d="M 9.3636 137.29572 
L 389.6964 137.29572 
" clip-path="url(#pcd72a5cdbf)" style="fill: none; stroke: #bbbbbb; stroke-width: 0.5; stroke-linecap: square"/>
   </g>
   <g id="text_1">
    <text style="font-size: 7px; font-family: 'Arial', 'Helvetica', 'DejaVu Sans', sans-serif" transform="translate(11.629263 24.426967)">Recorded NSMP</text>
    <text style="font-size: 7px; font-family: 'Arial', 'Helvetica', 'DejaVu Sans', sans-serif" transform="translate(13.76481 31.83078)">ground motions</text>
   </g>
   <g id="text_2">
    <text style="font-size: 5.6px; font-family: 'Arial', 'Helvetica', 'DejaVu Sans', sans-serif; text-anchor: middle; fill: #444444" x="37.88856" y="43.437365" transform="rotate(-0 37.88856 43.437365)">44 events / 1000 comps.</text>
   </g>
   <g id="text_3">
    <text style="font-size: 7px; font-family: 'Arial', 'Helvetica', 'DejaVu Sans', sans-serif" transform="translate(88.888191 24.467983)">Nonlinear MDOF</text>
    <text style="font-size: 7px; font-family: 'Arial', 'Helvetica', 'DejaVu Sans', sans-serif" transform="translate(90.629988 31.871796)">response labels</text>
   </g>
   <g id="text_4">
    <text style="font-size: 5.6px; font-family: 'Arial', 'Helvetica', 'DejaVu Sans', sans-serif; text-anchor: middle; fill: #444444" x="115.14366" y="43.378739" transform="rotate(-0 115.14366 43.378739)">48 shear-building systems</text>
   </g>
   <g id="text_5">
    <text style="font-size: 7px; font-family: 'Arial', 'Helvetica', 'DejaVu Sans', sans-serif" transform="translate(177.859051 24.467983)">Event-level</text>
    <text style="font-size: 7px; font-family: 'Arial', 'Helvetica', 'DejaVu Sans', sans-serif" transform="translate(178.828661 31.871796)">separation</text>
   </g>
   <g id="text_6">
    <text style="font-size: 5.6px; font-family: 'Arial', 'Helvetica', 'DejaVu Sans', sans-serif; text-anchor: middle; fill: #444444" x="195.17202" y="43.404552" transform="rotate(-0 195.17202 43.404552)">source / target / test events</text>
   </g>
   <g id="text_7">
    <text style="font-size: 7px; font-family: 'Arial', 'Helvetica', 'DejaVu Sans', sans-serif" transform="translate(255.928567 24.426967)">Finite target</text>
    <text style="font-size: 7px; font-family: 'Arial', 'Helvetica', 'DejaVu Sans', sans-serif" transform="translate(265.263723 31.912811)">labels</text>
   </g>
   <g id="text_8">
    <text style="font-size: 5.6px; font-family: 'Arial', 'Helvetica', 'DejaVu Sans', sans-serif; text-anchor: middle; fill: #444444" x="274.40802" y="43.403239" transform="rotate(-0 274.40802 43.403239)">fit + conformal calibration</text>
   </g>
   <g id="text_9">
    <text style="font-size: 7px; font-family: 'Arial', 'Helvetica', 'DejaVu Sans', sans-serif" transform="translate(332.874069 24.510639)">Split conformal</text>
    <text style="font-size: 7px; font-family: 'Arial', 'Helvetica', 'DejaVu Sans', sans-serif" transform="translate(344.739069 31.914452)">interval</text>
   </g>
   <g id="text_10">
    <!-- $U=\hat{y}+q_{0.90}$ -->
    <g style="fill: #444444" transform="translate(339.2211 43.943552)">
     <text>
      <tspan x="0" y="-0.58125" style="font-style: oblique; font-size: 5.6px; font-family: 'DejaVu Sans'; fill: #444444">U</tspan>
      <tspan x="11.022034" y="-0.58125" style="font-style: oblique; font-size: 5.6px; font-family: 'DejaVu Sans'; fill: #444444">y</tspan>
      <tspan x="21.255798" y="-0.58125" style="font-style: oblique; font-size: 5.6px; font-family: 'DejaVu Sans'; fill: #444444">q</tspan>
      <tspan x="5.213013" y="-0.58125" style="font-size: 5.6px; font-family: 'DejaVu Sans'; fill: #444444">=</tspan>
      <tspan x="14.135498" y="-1.203125" style="font-size: 5.6px; font-family: 'DejaVu Sans'; fill: #444444">̂</tspan>
      <tspan x="15.446777" y="-0.58125" style="font-size: 5.6px; font-family: 'DejaVu Sans'; fill: #444444">+</tspan>
      <tspan x="24.826355" y="0.403125" style="font-size: 3.92px; font-family: 'DejaVu Sans'; fill: #444444">0</tspan>
      <tspan x="27.331512" y="0.403125" style="font-size: 3.92px; font-family: 'DejaVu Sans'; fill: #444444">.</tspan>
      <tspan x="28.58313" y="0.403125" style="font-size: 3.92px; font-family: 'DejaVu Sans'; fill: #444444">9</tspan>
      <tspan x="31.088287" y="0.403125" style="font-size: 3.92px; font-family: 'DejaVu Sans'; fill: #444444">0</tspan>
     </text>
    </g>
   </g>
   <g id="text_11">
    <text style="font-size: 7px; font-family: 'Arial', 'Helvetica', 'DejaVu Sans', sans-serif" transform="translate(23.834348 85.521848)">Drift-threshold</text>
    <text style="font-size: 7px; font-family: 'Arial', 'Helvetica', 'DejaVu Sans', sans-serif" transform="translate(30.637473 92.92566)">screening</text>
   </g>
   <g id="text_12">
    <!-- safe iff $U\leq\log_{10}\tau$ -->
    <g style="fill: #444444" transform="translate(22.29216 104.590432)">
     <text>
      <tspan x="0" y="-0.4375" style="font-size: 5.6px; font-family: 'Arial'; fill: #444444">s</tspan>
      <tspan x="2.8125" y="-0.4375" style="font-size: 5.6px; font-family: 'Arial'; fill: #444444">a</tspan>
      <tspan x="5.940857" y="-0.4375" style="font-size: 5.6px; font-family: 'Arial'; fill: #444444">f</tspan>
      <tspan x="7.503662" y="-0.4375" style="font-size: 5.6px; font-family: 'Arial'; fill: #444444">e</tspan>
      <tspan x="10.632019" y="-0.4375" style="font-size: 5.6px; font-family: 'Arial'; fill: #444444"> </tspan>
      <tspan x="12.194824" y="-0.4375" style="font-size: 5.6px; font-family: 'Arial'; fill: #444444">i</tspan>
      <tspan x="13.444519" y="-0.4375" style="font-size: 5.6px; font-family: 'Arial'; fill: #444444">f</tspan>
      <tspan x="15.007324" y="-0.4375" style="font-size: 5.6px; font-family: 'Arial'; fill: #444444">f</tspan>
      <tspan x="16.570129" y="-0.4375" style="font-size: 5.6px; font-family: 'Arial'; fill: #444444"> </tspan>
      <tspan x="18.132935" y="-0.4375" style="font-style: oblique; font-size: 5.6px; font-family: 'DejaVu Sans'; fill: #444444">U</tspan>
      <tspan x="43.874853" y="-0.4375" style="font-style: oblique; font-size: 5.6px; font-family: 'DejaVu Sans'; fill: #444444">τ</tspan>
      <tspan x="23.345947" y="-0.4375" style="font-size: 5.6px; font-family: 'DejaVu Sans'; fill: #444444">≤</tspan>
      <tspan x="29.154968" y="-0.4375" style="font-size: 5.6px; font-family: 'DejaVu Sans'; fill: #444444">l</tspan>
      <tspan x="30.717773" y="-0.4375" style="font-size: 5.6px; font-family: 'DejaVu Sans'; fill: #444444">o</tspan>
      <tspan x="34.159241" y="-0.4375" style="font-size: 5.6px; font-family: 'DejaVu Sans'; fill: #444444">g</tspan>
      <tspan x="37.787219" y="0.546875" style="font-size: 3.92px; font-family: 'DejaVu Sans'; fill: #444444">1</tspan>
      <tspan x="40.292377" y="0.546875" style="font-size: 3.92px; font-family: 'DejaVu Sans'; fill: #444444">0</tspan>
     </text>
    </g>
   </g>
   <g id="text_13">
    <text style="font-size: 7px; font-family: 'Arial', 'Helvetica', 'DejaVu Sans', sans-serif" transform="translate(121.783662 85.521848)">False-safe</text>
    <text style="font-size: 7px; font-family: 'Arial', 'Helvetica', 'DejaVu Sans', sans-serif" transform="translate(122.169756 92.92566)">probability</text>
   </g>
   <g id="text_14">
    <!-- $P_{FS}$, event-equal -->
    <g style="fill: #444444" transform="translate(117.7941 104.534432)">
     <text>
      <tspan x="0" y="-0.625" style="font-style: oblique; font-size: 5.6px; font-family: 'DejaVu Sans'; fill: #444444">P</tspan>
      <tspan x="3.392029" y="0.359375" style="font-style: oblique; font-size: 3.92px; font-family: 'DejaVu Sans'; fill: #444444">F</tspan>
      <tspan x="5.65686" y="0.359375" style="font-style: oblique; font-size: 3.92px; font-family: 'DejaVu Sans'; fill: #444444">S</tspan>
      <tspan x="8.320312" y="-0.625" style="font-size: 5.6px; font-family: 'Arial'; fill: #444444">,</tspan>
      <tspan x="9.883118" y="-0.625" style="font-size: 5.6px; font-family: 'Arial'; fill: #444444"> </tspan>
      <tspan x="11.445923" y="-0.625" style="font-size: 5.6px; font-family: 'Arial'; fill: #444444">e</tspan>
      <tspan x="14.57428" y="-0.625" style="font-size: 5.6px; font-family: 'Arial'; fill: #444444">v</tspan>
      <tspan x="17.38678" y="-0.625" style="font-size: 5.6px; font-family: 'Arial'; fill: #444444">e</tspan>
      <tspan x="20.515137" y="-0.625" style="font-size: 5.6px; font-family: 'Arial'; fill: #444444">n</tspan>
      <tspan x="23.643494" y="-0.625" style="font-size: 5.6px; font-family: 'Arial'; fill: #444444">t</tspan>
      <tspan x="25.206299" y="-0.625" style="font-size: 5.6px; font-family: 'Arial'; fill: #444444">-</tspan>
      <tspan x="27.079468" y="-0.625" style="font-size: 5.6px; font-family: 'Arial'; fill: #444444">e</tspan>
      <tspan x="30.207825" y="-0.625" style="font-size: 5.6px; font-family: 'Arial'; fill: #444444">q</tspan>
      <tspan x="33.336182" y="-0.625" style="font-size: 5.6px; font-family: 'Arial'; fill: #444444">u</tspan>
      <tspan x="36.464539" y="-0.625" style="font-size: 5.6px; font-family: 'Arial'; fill: #444444">a</tspan>
      <tspan x="39.592896" y="-0.625" style="font-size: 5.6px; font-family: 'Arial'; fill: #444444">l</tspan>
     </text>
    </g>
   </g>
   <g id="text_15">
    <text style="font-size: 7px; font-family: 'Arial', 'Helvetica', 'DejaVu Sans', sans-serif" transform="translate(218.723312 85.521848)">Conservative</text>
    <text style="font-size: 7px; font-family: 'Arial', 'Helvetica', 'DejaVu Sans', sans-serif" transform="translate(216.194016 92.92566)">reliability index</text>
   </g>
   <g id="text_16">
    <!-- $\beta_{FS,cons}=-\Phi^{-1}(P_{FS}^{U95})$ -->
    <g style="fill: #444444" transform="translate(210.308 104.786432)">
     <text>
      <tspan x="0" y="-0.585938" style="font-style: oblique; font-size: 5.6px; font-family: 'DejaVu Sans'; fill: #444444">β</tspan>
      <tspan x="43.923541" y="-0.585938" style="font-style: oblique; font-size: 5.6px; font-family: 'DejaVu Sans'; fill: #444444">P</tspan>
      <tspan x="3.589783" y="0.398438" style="font-style: oblique; font-size: 3.92px; font-family: 'DejaVu Sans'; fill: #444444">F</tspan>
      <tspan x="5.854614" y="0.398438" style="font-style: oblique; font-size: 3.92px; font-family: 'DejaVu Sans'; fill: #444444">S</tspan>
      <tspan x="10.372742" y="0.398438" style="font-style: oblique; font-size: 3.92px; font-family: 'DejaVu Sans'; fill: #444444">c</tspan>
      <tspan x="12.537598" y="0.398438" style="font-style: oblique; font-size: 3.92px; font-family: 'DejaVu Sans'; fill: #444444">o</tspan>
      <tspan x="14.946625" y="0.398438" style="font-style: oblique; font-size: 3.92px; font-family: 'DejaVu Sans'; fill: #444444">n</tspan>
      <tspan x="17.442169" y="0.398438" style="font-style: oblique; font-size: 3.92px; font-family: 'DejaVu Sans'; fill: #444444">s</tspan>
      <tspan x="47.31557" y="1.054688" style="font-style: oblique; font-size: 3.92px; font-family: 'DejaVu Sans'; fill: #444444">F</tspan>
      <tspan x="47.736664" y="-2.882812" style="font-style: oblique; font-size: 3.92px; font-family: 'DejaVu Sans'; fill: #444444">U</tspan>
      <tspan x="49.580402" y="1.054688" style="font-style: oblique; font-size: 3.92px; font-family: 'DejaVu Sans'; fill: #444444">S</tspan>
      <tspan x="8.354004" y="0.398438" style="font-size: 3.92px; font-family: 'DejaVu Sans'; fill: #444444">,</tspan>
      <tspan x="35.760608" y="-2.882812" style="font-size: 3.92px; font-family: 'DejaVu Sans'; fill: #444444">−</tspan>
      <tspan x="39.059802" y="-2.882812" style="font-size: 3.92px; font-family: 'DejaVu Sans'; fill: #444444">1</tspan>
      <tspan x="50.618652" y="-2.882812" style="font-size: 3.92px; font-family: 'DejaVu Sans'; fill: #444444">9</tspan>
      <tspan x="53.12381" y="-2.882812" style="font-size: 3.92px; font-family: 'DejaVu Sans'; fill: #444444">5</tspan>
      <tspan x="20.75354" y="-0.585938" style="font-size: 5.6px; font-family: 'DejaVu Sans'; fill: #444444">=</tspan>
      <tspan x="26.562561" y="-0.585938" style="font-size: 5.6px; font-family: 'DejaVu Sans'; fill: #444444">−</tspan>
      <tspan x="31.275696" y="-0.585938" style="font-size: 5.6px; font-family: 'DejaVu Sans'; fill: #444444">Φ</tspan>
      <tspan x="41.729022" y="-0.585938" style="font-size: 5.6px; font-family: 'DejaVu Sans'; fill: #444444">(</tspan>
      <tspan x="55.79303" y="-0.585938" style="font-size: 5.6px; font-family: 'DejaVu Sans'; fill: #444444">)</tspan>
     </text>
    </g>
   </g>
   <g id="text_17">
    <text style="font-size: 7px; font-family: 'Arial', 'Helvetica', 'DejaVu Sans', sans-serif" transform="translate(334.481953 85.521848)">Eligibility</text>
    <text style="font-size: 7px; font-family: 'Arial', 'Helvetica', 'DejaVu Sans', sans-serif" transform="translate(335.256875 93.007691)">decision</text>
   </g>
   <g id="text_18">
    <text style="font-size: 5.6px; font-family: 'Arial', 'Helvetica', 'DejaVu Sans', sans-serif; text-anchor: middle; fill: #444444" x="348.0975" y="104.499432" transform="rotate(-0 348.0975 104.499432)">accept / widen / reject</text>
   </g>
   <g id="patch_11">
    <path d="M 74.151604 33.5952 
Q 76.518028 33.5952 77.990025 33.5952 
" style="fill: none; stroke: #3d3d3d; stroke-width: 0.8; stroke-linecap: round"/>
    <path d="M 74.790025 31.9952 
L 77.990025 33.5952 
L 74.790025 35.1952 
z
" style="fill: #3d3d3d; stroke: #3d3d3d; stroke-width: 0.8; stroke-linecap: round"/>
   </g>
   <g id="patch_12">
    <path d="M 151.401868 33.5952 
Q 155.156216 33.5952 158.016136 33.5952 
" style="fill: none; stroke: #3d3d3d; stroke-width: 0.8; stroke-linecap: round"/>
    <path d="M 154.816136 31.9952 
L 158.016136 33.5952 
L 154.816136 35.1952 
z
" style="fill: #3d3d3d; stroke: #3d3d3d; stroke-width: 0.8; stroke-linecap: round"/>
   </g>
   <g id="patch_13">
    <path d="M 231.432162 33.5952 
Q 234.790888 33.5952 237.255186 33.5952 
" style="fill: none; stroke: #3d3d3d; stroke-width: 0.8; stroke-linecap: round"/>
    <path d="M 234.055186 31.9952 
L 237.255186 33.5952 
L 234.055186 35.1952 
z
" style="fill: #3d3d3d; stroke: #3d3d3d; stroke-width: 0.8; stroke-linecap: round"/>
   </g>
   <g id="patch_14">
    <path d="M 310.667389 33.5952 
Q 315.213985 33.5952 318.866155 33.5952 
" style="fill: none; stroke: #3d3d3d; stroke-width: 0.8; stroke-linecap: round"/>
    <path d="M 315.666155 31.9952 
L 318.866155 33.5952 
L 315.666155 35.1952 
z
" style="fill: #3d3d3d; stroke: #3d3d3d; stroke-width: 0.8; stroke-linecap: round"/>
   </g>
   <g id="patch_15">
    <path d="M 88.41215 94.69008 
Q 91.966675 94.69008 94.626773 94.69008 
" style="fill: none; stroke: #3d3d3d; stroke-width: 0.8; stroke-linecap: round"/>
    <path d="M 91.426773 93.09008 
L 94.626773 94.69008 
L 91.426773 96.29008 
z
" style="fill: #3d3d3d; stroke: #3d3d3d; stroke-width: 0.8; stroke-linecap: round"/>
   </g>
   <g id="patch_16">
    <path d="M 180.717737 94.69008 
Q 188.634148 94.69008 195.656132 94.69008 
" style="fill: none; stroke: #3d3d3d; stroke-width: 0.8; stroke-linecap: round"/>
    <path d="M 192.456132 93.09008 
L 195.656132 94.69008 
L 192.456132 96.29008 
z
" style="fill: #3d3d3d; stroke: #3d3d3d; stroke-width: 0.8; stroke-linecap: round"/>
   </g>
   <g id="patch_17">
    <path d="M 281.749682 94.69008 
Q 293.624148 94.69008 304.604186 94.69008 
" style="fill: none; stroke: #3d3d3d; stroke-width: 0.8; stroke-linecap: round"/>
    <path d="M 301.404186 93.09008 
L 304.604186 94.69008 
L 301.404186 96.29008 
z
" style="fill: #3d3d3d; stroke: #3d3d3d; stroke-width: 0.8; stroke-linecap: round"/>
   </g>
   <g id="patch_18">
    <path d="M 45.81216 62.729197 
Q 45.81216 69.003959 45.81216 74.384295 
" style="fill: none; stroke: #3d3d3d; stroke-width: 0.8; stroke-linecap: round"/>
    <path d="M 47.41216 71.184295 
L 45.81216 74.384295 
L 44.21216 71.184295 
z
" style="fill: #3d3d3d; stroke: #3d3d3d; stroke-width: 0.8; stroke-linecap: round"/>
   </g>
   <g id="text_19">
    <text style="font-size: 6.2px; font-family: 'Arial', 'Helvetica', 'DejaVu Sans', sans-serif; text-anchor: start; fill: #333333" x="9.3636" y="150.15429" transform="rotate(-0 9.3636 150.15429)">Event-level guardrails: no record leakage across event identifiers; event-equal aggregation; bootstrap over events, not rows.</text>
   </g>
   <g id="text_20">
    <text style="font-size: 6.2px; font-family: 'Arial', 'Helvetica', 'DejaVu Sans', sans-serif; text-anchor: start; fill: #333333" x="9.3636" y="159.80085" transform="rotate(-0 9.3636 159.80085)">Filter passage is necessary, not sufficient: false-unsafe burden and downstream decision cost remain.</text>
   </g>
  </g>
 </g>
 <defs>
  <clipPath id="pcd72a5cdbf">
   <rect x="1.44" y="1.44" width="396.18" height="160.776"/>
  </clipPath>
 </defs>
</svg>
